# xmcd
#
# Track frame offsets: 
#        300
#        16254
#        36013
#        49033
#        70421
#        81409
#        97482
#        109686
#        122834
#        136873
#        153261
#
# Disc length: 2292 seconds
#
# Revision: 4
# Processed by: cddbd v1.5.2PL0 Copyright (c) Steve Scherf et al.
# Submitted via: ExactAudioCopy v0.99pb5
#
DISCID=9408f00b
DTITLE=Bonnie Raitt - Bonnie Raitt
DYEAR=1971
DGENRE=Blues Rock
TTITLE0=Bluebird
TTITLE1=Mighty Tight Woman
TTITLE2=Thank You
TTITLE3=Finest Lovin' Man
TTITLE4=Any Day Woman
TTITLE5=Big Road
TTITLE6=Walking Blues
TTITLE7=Danger Heartbreak Dead Ahead
TTITLE8=Since I Fell For You
TTITLE9=I Ain't Blue
TTITLE10=Women Be Wise
EXTD=
EXTT0=
EXTT1=
EXTT2=
EXTT3=
EXTT4=
EXTT5=
EXTT6=
EXTT7=
EXTT8=
EXTT9=
EXTT10=
PLAYORDER=
